<svg width="226" height="75" fill="none" xmlns="http://www.w3.org/2000/svg"><path d="m60.2 43.998 5.26-14.3h2.02l5.28 14.3H70.8l-1.52-4.36h-5.7l-1.54 4.36H60.2Zm5.6-10.62-1.7 4.8h4.68l-1.64-4.8-.64-2.02h-.04c-.253.8-.473 1.474-.66 2.02Zm8.509 10.62v-14.3h1.9l6.52 9.94 1.04 1.84h.04v-11.78h1.68v14.3h-1.84l-6.56-9.96-1.06-1.78h-.04v11.74h-1.68Zm13.907 0v-14.3h1.8v14.3h-1.8Zm4.51 0v-14.3h2.3l4.64 11.88h.04l4.601-11.88h2.34v14.3h-1.72v-11.76h-.04a54.584 54.584 0 0 1-.64 1.8l-3.92 9.96h-1.38l-3.92-9.96-.64-1.8h-.04v11.76h-1.62Zm15.462 0 5.26-14.3h2.02l5.28 14.3h-1.96l-1.52-4.36h-5.7l-1.54 4.36h-1.84Zm5.6-10.62-1.7 4.8h4.68l-1.64-4.8-.64-2.02h-.04c-.253.8-.473 1.474-.66 2.02Zm5.812-2.1v-1.58h11.32v1.58h-4.76v12.72h-1.8v-12.72h-4.76Zm13.147 12.72v-14.3h1.8v14.3h-1.8Zm16.051-1.8c-1.267 1.4-2.96 2.1-5.08 2.1s-3.82-.7-5.1-2.1c-1.267-1.4-1.9-3.186-1.9-5.36 0-2.173.633-3.96 1.9-5.36 1.28-1.4 2.98-2.1 5.1-2.1 2.12 0 3.813.7 5.08 2.1 1.28 1.4 1.92 3.187 1.92 5.36 0 2.174-.64 3.96-1.92 5.36Zm-8.88-1.12c.907 1.094 2.173 1.64 3.8 1.64 1.627 0 2.893-.546 3.8-1.64.907-1.093 1.36-2.506 1.36-4.24 0-1.733-.453-3.146-1.36-4.24-.907-1.106-2.173-1.66-3.8-1.66-1.627 0-2.893.554-3.8 1.66-.907 1.094-1.36 2.507-1.36 4.24 0 1.734.453 3.147 1.36 4.24Zm12.945 2.92v-14.3h1.9l6.52 9.94 1.04 1.84h.04v-11.78h1.68v14.3h-1.84l-6.56-9.96-1.06-1.78h-.04v11.74h-1.68Z" fill="#F9FDFE"/><rect x=".5" y="1.499" width="225" height="73" rx="36.5" stroke="#F9FDFE"/></svg>