<svg width="188" height="75" fill="none" xmlns="http://www.w3.org/2000/svg"><path d="M61.893 43.757v-14.3h6.06c1.506 0 2.653.413 3.44 1.24.613.64.92 1.453.92 2.44 0 1.52-.767 2.52-2.3 3v.06c.853.2 1.546.6 2.08 1.2.533.586.8 1.34.8 2.26 0 1.093-.347 2.006-1.04 2.74-.84.906-2.034 1.36-3.58 1.36h-6.38Zm1.8-1.62h4.5c.986 0 1.733-.24 2.24-.72.426-.454.64-1.007.64-1.66 0-.867-.274-1.527-.82-1.98-.547-.454-1.274-.68-2.18-.68h-4.38v5.04Zm0-6.56h4.04c.866 0 1.546-.207 2.04-.62.493-.414.74-.987.74-1.72 0-.694-.227-1.234-.68-1.62-.44-.4-1.06-.6-1.86-.6h-4.28v4.56Zm11.07 8.18v-14.3h6.68c1.254 0 2.267.36 3.04 1.08.787.72 1.18 1.666 1.18 2.84 0 1.826-.826 3.006-2.48 3.54v.06c.707.253 1.207.653 1.5 1.2.307.533.494 1.346.56 2.44.134 1.826.354 2.846.66 3.06v.08h-1.94c-.146-.12-.252-.374-.32-.76-.052-.387-.12-1.2-.2-2.44-.066-1.04-.326-1.774-.78-2.2-.44-.427-1.146-.64-2.12-.64h-3.98v6.04h-1.8Zm1.8-12.74v5.24h4.24c.987 0 1.734-.227 2.24-.68.507-.467.76-1.114.76-1.94 0-.894-.226-1.554-.68-1.98-.453-.427-1.193-.64-2.22-.64h-4.34Zm10.147 12.74 5.26-14.3h2.02l5.28 14.3h-1.96l-1.52-4.36h-5.7l-1.54 4.36h-1.84Zm5.6-10.62-1.7 4.8h4.68l-1.64-4.8-.64-2.02h-.04c-.254.8-.474 1.473-.66 2.02Zm8.509 10.62v-14.3h1.9l6.52 9.94 1.04 1.84h.04v-11.78h1.68v14.3h-1.84l-6.56-9.96-1.06-1.78h-.04v11.74h-1.68Zm13.867 0v-14.3h5.2c2.093 0 3.673.646 4.74 1.94 1.066 1.293 1.6 3.046 1.6 5.26 0 2.2-.554 3.933-1.66 5.2-1.107 1.266-2.714 1.9-4.82 1.9h-5.06Zm1.8-1.58h3.2c3.133 0 4.7-1.84 4.7-5.52 0-3.76-1.52-5.64-4.56-5.64h-3.34v11.16Z" fill="#F9FDFE"/><rect x="1.053" y="1.257" width="186" height="73" rx="36.5" stroke="#F9FDFE"/></svg>