<svg width="231" height="75" fill="none" xmlns="http://www.w3.org/2000/svg"><path d="M68.088 43.704c-2.013 0-3.633-.693-4.86-2.08-1.227-1.386-1.84-3.173-1.84-5.36 0-2.16.607-3.94 1.82-5.34 1.227-1.413 2.88-2.12 4.96-2.12 1.627 0 2.94.42 3.94 1.26 1 .84 1.6 1.94 1.8 3.3h-1.76c-.173-.906-.613-1.633-1.32-2.18-.693-.546-1.593-.82-2.7-.82-1.533 0-2.733.554-3.6 1.66-.867 1.094-1.3 2.507-1.3 4.24 0 1.76.447 3.18 1.34 4.26.907 1.067 2.1 1.6 3.58 1.6 1.28 0 2.267-.373 2.96-1.12.707-.746 1.107-1.686 1.2-2.82h1.78c-.013.707-.18 1.434-.5 2.18-.307.734-.713 1.347-1.22 1.84-1.027 1-2.453 1.5-4.28 1.5Zm8.02-.28v-14.3h6.68c1.253 0 2.266.36 3.04 1.08.786.72 1.18 1.667 1.18 2.84 0 1.827-.827 3.007-2.48 3.54v.06c.706.254 1.206.654 1.5 1.2.306.534.493 1.347.56 2.44.133 1.827.353 2.847.66 3.06v.08h-1.94c-.147-.12-.254-.373-.32-.76-.054-.386-.12-1.2-.2-2.44-.067-1.04-.327-1.773-.78-2.2-.44-.426-1.147-.64-2.12-.64h-3.98v6.04h-1.8Zm1.8-12.74v5.24h4.24c.986 0 1.733-.226 2.24-.68.506-.466.76-1.113.76-1.94 0-.893-.227-1.553-.68-1.98-.454-.426-1.194-.64-2.22-.64h-4.34Zm11.285 12.74v-14.3h10.1v1.58h-8.3v4.52h7.54v1.52h-7.54v5.02h8.54v1.66h-10.34Zm11.497 0 5.26-14.3h2.02l5.28 14.3h-1.96l-1.52-4.36h-5.7l-1.54 4.36h-1.84Zm5.6-10.62-1.7 4.8h4.68l-1.64-4.8-.64-2.02h-.04c-.253.8-.473 1.474-.66 2.02Zm5.812-2.1v-1.58h11.32v1.58h-4.76v12.72h-1.8v-12.72h-4.76Zm13.147 12.72v-14.3h1.8v14.3h-1.8Zm8.351 0-4.98-14.3h1.94l3.52 10.64.56 1.92h.04c.227-.853.413-1.493.56-1.92l3.48-10.64h1.88l-5.02 14.3h-1.98Zm8.583 0v-14.3h1.8v14.3h-1.8Zm3.611-12.72v-1.58h11.32v1.58h-4.76v12.72h-1.8v-12.72h-4.76Zm17.342 12.72v-6.06l-5.18-8.24h2l4.1 6.8h.04l4.16-6.8h1.92l-5.24 8.28v6.02h-1.8Z" fill="#F9FDFE"/><rect x="1.088" y=".924" width="229" height="73" rx="36.5" stroke="#F9FDFE"/></svg>