<svg width="265" height="75" fill="none" xmlns="http://www.w3.org/2000/svg"><path d="M61.41 43.426v-14.3h5.2c2.094 0 3.674.647 4.74 1.94 1.067 1.294 1.6 3.047 1.6 5.26 0 2.2-.553 3.934-1.66 5.2-1.106 1.267-2.713 1.9-4.82 1.9h-5.06Zm1.8-1.58h3.2c3.134 0 4.7-1.84 4.7-5.52 0-3.76-1.52-5.64-4.56-5.64h-3.34v11.16Zm11.872 1.58v-14.3h10.1v1.58h-8.3v4.52h7.54v1.52h-7.54v5.02h8.54v1.66h-10.34Zm16.282 0-4.98-14.3h1.94l3.52 10.64.56 1.92h.04c.226-.853.413-1.493.56-1.92l3.48-10.64h1.88l-5.02 14.3h-1.98Zm8.542 0v-14.3h10.1v1.58h-8.3v4.52h7.54v1.52h-7.54v5.02h8.54v1.66h-10.34Zm12.442 0v-14.3h1.8v12.64h7.5v1.66h-9.3Zm21.716-1.8c-1.267 1.4-2.96 2.1-5.08 2.1s-3.82-.7-5.1-2.1c-1.267-1.4-1.9-3.186-1.9-5.36 0-2.173.633-3.96 1.9-5.36 1.28-1.4 2.98-2.1 5.1-2.1 2.12 0 3.813.7 5.08 2.1 1.28 1.4 1.92 3.187 1.92 5.36 0 2.174-.64 3.96-1.92 5.36Zm-8.88-1.12c.906 1.094 2.173 1.64 3.8 1.64 1.626 0 2.893-.546 3.8-1.64.906-1.093 1.36-2.506 1.36-4.24 0-1.733-.454-3.146-1.36-4.24-.907-1.106-2.174-1.66-3.8-1.66-1.627 0-2.894.554-3.8 1.66-.907 1.094-1.36 2.507-1.36 4.24 0 1.734.453 3.147 1.36 4.24Zm12.945 2.92v-14.3h5.96c1.493 0 2.627.46 3.4 1.38.64.747.96 1.654.96 2.72 0 1.334-.387 2.367-1.16 3.1-.773.734-1.927 1.1-3.46 1.1h-3.9v6h-1.8Zm1.8-12.74v5.28h3.76c.987 0 1.727-.233 2.22-.7.507-.466.76-1.12.76-1.96 0-.853-.253-1.5-.76-1.94-.493-.453-1.2-.68-2.12-.68h-3.86Zm10.251 12.74v-14.3h2.3l4.64 11.88h.04l4.6-11.88h2.34v14.3h-1.72v-11.76h-.04a52.496 52.496 0 0 1-.64 1.8l-3.92 9.96h-1.38l-3.92-9.96-.64-1.8h-.04v11.76h-1.62Zm16.601 0v-14.3h10.1v1.58h-8.3v4.52h7.54v1.52h-7.54v5.02h8.54v1.66h-10.34Zm12.442 0v-14.3h1.9l6.52 9.94 1.04 1.84h.04v-11.78h1.68v14.3h-1.84l-6.56-9.96-1.06-1.78h-.04v11.74h-1.68Zm12.967-12.72v-1.58h11.32v1.58h-4.76v12.72h-1.8v-12.72h-4.76Z" fill="#F9FDFE"/><rect x=".57" y=".926" width="263" height="73" rx="36.5" stroke="#F9FDFE"/></svg>