<svg width="240" height="75" fill="none" xmlns="http://www.w3.org/2000/svg"><path d="M61.34 43.002v-14.3h10.1v1.58h-8.3v4.52h7.54v1.52h-7.54v5.02h8.54v1.66H61.34Zm11.381 0 4.96-7.32-4.6-6.98h2.08l3.54 5.72h.04l3.62-5.72h1.98l-4.68 7 4.82 7.3h-2.16l-3.68-6.02h-.04l-3.84 6.02h-2.04Zm13.385 0v-14.3h5.96c1.493 0 2.626.46 3.4 1.38.64.746.96 1.653.96 2.72 0 1.333-.387 2.366-1.16 3.1-.774.733-1.927 1.1-3.46 1.1h-3.9v6h-1.8Zm1.8-12.74v5.28h3.76c.986 0 1.726-.234 2.22-.7.506-.467.76-1.12.76-1.96 0-.854-.254-1.5-.76-1.94-.494-.454-1.2-.68-2.12-.68h-3.86Zm10.25 12.74v-14.3h10.1v1.58h-8.3v4.52h7.54v1.52h-7.54v5.02h8.54v1.66h-10.34Zm12.442 0v-14.3h6.68c1.253 0 2.266.36 3.04 1.08.786.72 1.18 1.666 1.18 2.84 0 1.826-.827 3.006-2.48 3.54v.06c.706.253 1.206.653 1.5 1.2.306.533.493 1.346.56 2.44.133 1.826.353 2.846.66 3.06v.08h-1.94c-.147-.12-.254-.374-.32-.76-.054-.387-.12-1.2-.2-2.44-.067-1.04-.327-1.774-.78-2.2-.44-.427-1.147-.64-2.12-.64h-3.98v6.04h-1.8Zm1.8-12.74v5.24h4.24c.986 0 1.733-.227 2.24-.68.506-.467.76-1.114.76-1.94 0-.894-.227-1.554-.68-1.98-.454-.427-1.194-.64-2.22-.64h-4.34Zm11.326 12.74v-14.3h1.8v14.3h-1.8Zm4.511 0v-14.3h10.1v1.58h-8.3v4.52h7.54v1.52h-7.54v5.02h8.54v1.66h-10.34Zm12.441 0v-14.3h1.9l6.52 9.94 1.04 1.84h.04v-11.78h1.68v14.3h-1.84l-6.56-9.96-1.06-1.78h-.04v11.74h-1.68Zm20.027.28c-2.013 0-3.633-.694-4.86-2.08-1.227-1.387-1.84-3.174-1.84-5.36 0-2.16.607-3.94 1.82-5.34 1.227-1.414 2.88-2.12 4.96-2.12 1.627 0 2.94.42 3.94 1.26 1 .84 1.6 1.94 1.8 3.3h-1.76c-.173-.907-.613-1.634-1.32-2.18-.693-.547-1.593-.82-2.7-.82-1.533 0-2.733.553-3.6 1.66-.867 1.093-1.3 2.506-1.3 4.24 0 1.76.447 3.18 1.34 4.26.907 1.066 2.1 1.6 3.58 1.6 1.28 0 2.267-.374 2.96-1.12.707-.747 1.107-1.687 1.2-2.82h1.78c-.013.706-.18 1.433-.5 2.18-.307.733-.713 1.346-1.22 1.84-1.027 1-2.453 1.5-4.28 1.5Zm8.02-.28v-14.3h10.1v1.58h-8.3v4.52h7.54v1.52h-7.54v5.02h8.54v1.66h-10.34Z" fill="#F9FDFE"/><rect x=".5" y=".501" width="239" height="73" rx="36.5" stroke="#F9FDFE"/></svg>