<svg width="178" height="75" fill="none" xmlns="http://www.w3.org/2000/svg"><path d="M62.208 43.002v-14.3h1.8v14.3h-1.8Zm4.51 0v-14.3h5.2c2.094 0 3.674.646 4.74 1.94 1.068 1.293 1.6 3.046 1.6 5.26 0 2.2-.552 3.933-1.66 5.2-1.106 1.266-2.712 1.9-4.82 1.9h-5.06Zm1.8-1.58h3.2c3.134 0 4.7-1.84 4.7-5.52 0-3.76-1.52-5.64-4.56-5.64h-3.34v11.16Zm11.873 1.58v-14.3h10.1v1.58h-8.3v4.52h7.54v1.52h-7.54v5.02h8.54v1.66H80.39Zm11.496 0 5.26-14.3h2.02l5.281 14.3h-1.96l-1.52-4.36h-5.7l-1.54 4.36h-1.84Zm5.6-10.62-1.7 4.8h4.681l-1.64-4.8-.64-2.02h-.04c-.254.8-.474 1.473-.66 2.02Zm13.514 10.9c-1.92 0-3.4-.474-4.44-1.42-1.027-.947-1.58-2.18-1.66-3.7h1.76c.24 2.453 1.713 3.68 4.42 3.68 1.027 0 1.847-.227 2.46-.68.627-.467.94-1.134.94-2 0-.387-.073-.727-.22-1.02a2.331 2.331 0 0 0-.54-.72c-.2-.187-.507-.36-.92-.52-.413-.16-.8-.287-1.16-.38a32.275 32.275 0 0 0-1.44-.34c-.733-.16-1.34-.32-1.82-.48a7.933 7.933 0 0 1-1.44-.7 2.895 2.895 0 0 1-1.08-1.12c-.227-.467-.34-1.027-.34-1.68 0-1.174.44-2.094 1.32-2.76.893-.68 2.073-1.02 3.54-1.02 3.213 0 5.02 1.486 5.42 4.46h-1.7c-.133-1.014-.513-1.774-1.14-2.28-.627-.52-1.473-.78-2.54-.78-.987 0-1.773.2-2.36.6-.573.4-.86.966-.86 1.7 0 .32.06.606.18.86.133.24.3.446.5.62.213.16.487.306.82.44.347.133.687.246 1.02.34.333.08.74.166 1.22.26.667.133 1.213.26 1.64.38.427.106.9.273 1.42.5.52.226.92.486 1.2.78.293.293.54.68.74 1.16.213.466.32 1.013.32 1.64 0 1.306-.487 2.333-1.46 3.08-.96.733-2.227 1.1-3.8 1.1Z" fill="#F9FDFE"/><rect x="1.328" y=".502" width="176" height="73" rx="36.5" stroke="#F9FDFE"/></svg>