<svg width="239" height="75" fill="none" xmlns="http://www.w3.org/2000/svg"><path d="M61.38 43.998v-14.3h1.8v14.3h-1.8Zm4.51 0v-14.3h1.9l6.52 9.94 1.04 1.84h.04v-11.78h1.68v14.3h-1.84l-6.56-9.96-1.06-1.78h-.04v11.74h-1.68Zm19.068.28c-1.92 0-3.4-.473-4.44-1.42-1.027-.946-1.58-2.18-1.66-3.7h1.76c.24 2.454 1.713 3.68 4.42 3.68 1.027 0 1.847-.226 2.46-.68.627-.466.94-1.133.94-2 0-.386-.073-.726-.22-1.02a2.322 2.322 0 0 0-.54-.72c-.2-.186-.507-.36-.92-.52-.413-.16-.8-.286-1.16-.38a32.073 32.073 0 0 0-1.44-.34c-.733-.16-1.34-.32-1.82-.48a7.933 7.933 0 0 1-1.44-.7 2.895 2.895 0 0 1-1.08-1.12c-.227-.466-.34-1.026-.34-1.68 0-1.173.44-2.093 1.32-2.76.893-.68 2.073-1.02 3.54-1.02 3.213 0 5.02 1.487 5.42 4.46h-1.7c-.133-1.013-.513-1.773-1.14-2.28-.627-.52-1.473-.78-2.54-.78-.987 0-1.773.2-2.36.6-.573.4-.86.967-.86 1.7 0 .32.06.607.18.86.133.24.3.447.5.62.213.16.487.307.82.44.347.134.687.247 1.02.34.333.08.74.167 1.22.26.667.134 1.213.26 1.64.38.427.107.9.274 1.42.5.52.227.92.487 1.2.78.293.294.54.68.74 1.16.213.467.32 1.014.32 1.64 0 1.307-.487 2.334-1.46 3.08-.96.734-2.227 1.1-3.8 1.1Zm7.32-.28v-14.3h5.96c1.493 0 2.626.46 3.4 1.38.64.747.96 1.654.96 2.72 0 1.334-.387 2.367-1.16 3.1-.774.734-1.927 1.1-3.46 1.1h-3.9v6h-1.8Zm1.8-12.74v5.28h3.76c.986 0 1.726-.233 2.22-.7.506-.466.76-1.12.76-1.96 0-.853-.254-1.5-.76-1.94-.494-.453-1.2-.68-2.12-.68h-3.86Zm10.29 12.74v-14.3h1.8v14.3h-1.8Zm4.511 0v-14.3h6.68c1.253 0 2.267.36 3.04 1.08.787.72 1.18 1.667 1.18 2.84 0 1.827-.827 3.007-2.48 3.54v.06c.707.254 1.207.654 1.5 1.2.307.534.493 1.347.56 2.44.133 1.827.353 2.847.66 3.06v.08h-1.94c-.147-.12-.253-.373-.32-.76-.053-.386-.12-1.2-.2-2.44-.067-1.04-.327-1.773-.78-2.2-.44-.426-1.147-.64-2.12-.64h-3.98v6.04h-1.8Zm1.8-12.74v5.24h4.24c.987 0 1.733-.226 2.24-.68.507-.466.76-1.113.76-1.94 0-.893-.227-1.553-.68-1.98-.453-.426-1.193-.64-2.22-.64h-4.34Zm10.146 12.74 5.26-14.3h2.02l5.28 14.3h-1.96l-1.52-4.36h-5.7l-1.54 4.36h-1.84Zm5.6-10.62-1.7 4.8h4.68l-1.64-4.8-.64-2.02h-.04c-.253.8-.473 1.474-.66 2.02Zm5.812-2.1v-1.58h11.32v1.58h-4.76v12.72h-1.8v-12.72h-4.76Zm13.147 12.72v-14.3h1.8v14.3h-1.8Zm16.051-1.8c-1.267 1.4-2.96 2.1-5.08 2.1s-3.82-.7-5.1-2.1c-1.267-1.4-1.9-3.186-1.9-5.36 0-2.173.633-3.96 1.9-5.36 1.28-1.4 2.98-2.1 5.1-2.1 2.12 0 3.813.7 5.08 2.1 1.28 1.4 1.92 3.187 1.92 5.36 0 2.174-.64 3.96-1.92 5.36Zm-8.88-1.12c.906 1.094 2.173 1.64 3.8 1.64 1.626 0 2.893-.546 3.8-1.64.906-1.093 1.36-2.506 1.36-4.24 0-1.733-.454-3.146-1.36-4.24-.907-1.106-2.174-1.66-3.8-1.66-1.627 0-2.894.554-3.8 1.66-.907 1.094-1.36 2.507-1.36 4.24 0 1.734.453 3.147 1.36 4.24Zm12.945 2.92v-14.3h1.9l6.52 9.94 1.04 1.84h.04v-11.78h1.68v14.3h-1.84l-6.56-9.96-1.06-1.78h-.04v11.74h-1.68Z" fill="#F9FDFE"/><rect x=".5" y="1.498" width="238" height="73" rx="36.5" stroke="#F9FDFE"/></svg>