<svg width="258" height="75" fill="none" xmlns="http://www.w3.org/2000/svg"><path d="M62.106 43.906v-14.3h5.96c1.493 0 2.626.46 3.4 1.38.64.746.96 1.653.96 2.72 0 1.333-.387 2.366-1.16 3.1-.774.733-1.927 1.1-3.46 1.1h-3.9v6h-1.8Zm1.8-12.74v5.28h3.76c.986 0 1.726-.234 2.22-.7.506-.467.76-1.12.76-1.96 0-.854-.254-1.5-.76-1.94-.494-.454-1.2-.68-2.12-.68h-3.86Zm10.25 12.74v-14.3h6.68c1.254 0 2.267.36 3.04 1.08.787.72 1.18 1.666 1.18 2.84 0 1.826-.826 3.006-2.48 3.54v.06c.707.253 1.207.653 1.5 1.2.307.533.494 1.346.56 2.44.134 1.826.354 2.846.66 3.06v.08h-1.94c-.146-.12-.253-.374-.32-.76-.053-.387-.12-1.2-.2-2.44-.066-1.04-.326-1.774-.78-2.2-.44-.427-1.146-.64-2.12-.64h-3.98v6.04h-1.8Zm1.8-12.74v5.24h4.24c.987 0 1.734-.227 2.24-.68.507-.467.76-1.114.76-1.94 0-.894-.226-1.554-.68-1.98-.453-.427-1.193-.64-2.22-.64h-4.34Zm22.826 10.94c-1.266 1.4-2.96 2.1-5.08 2.1s-3.82-.7-5.1-2.1c-1.266-1.4-1.9-3.187-1.9-5.36 0-2.174.634-3.96 1.9-5.36 1.28-1.4 2.98-2.1 5.1-2.1 2.12 0 3.814.7 5.08 2.1 1.28 1.4 1.92 3.186 1.92 5.36 0 2.173-.64 3.96-1.92 5.36Zm-8.88-1.12c.907 1.093 2.174 1.64 3.8 1.64 1.627 0 2.894-.547 3.8-1.64.907-1.094 1.36-2.507 1.36-4.24 0-1.734-.453-3.147-1.36-4.24-.906-1.107-2.173-1.66-3.8-1.66-1.626 0-2.893.553-3.8 1.66-.906 1.093-1.36 2.506-1.36 4.24 0 1.733.454 3.146 1.36 4.24Zm11.147-9.8v-1.58h11.32v1.58h-4.76v12.72h-1.8v-12.72h-4.76Zm23.749 10.92c-1.267 1.4-2.96 2.1-5.08 2.1s-3.82-.7-5.1-2.1c-1.267-1.4-1.9-3.187-1.9-5.36 0-2.174.633-3.96 1.9-5.36 1.28-1.4 2.98-2.1 5.1-2.1 2.12 0 3.813.7 5.08 2.1 1.28 1.4 1.92 3.186 1.92 5.36 0 2.173-.64 3.96-1.92 5.36Zm-8.88-1.12c.907 1.093 2.173 1.64 3.8 1.64 1.627 0 2.893-.547 3.8-1.64.907-1.094 1.36-2.507 1.36-4.24 0-1.734-.453-3.147-1.36-4.24-.907-1.107-2.173-1.66-3.8-1.66-1.627 0-2.893.553-3.8 1.66-.907 1.093-1.36 2.506-1.36 4.24 0 1.733.453 3.146 1.36 4.24Zm11.147-9.8v-1.58h11.32v1.58h-4.76v12.72h-1.8v-12.72h-4.76Zm17.342 12.72v-6.06l-5.18-8.24h2l4.1 6.8h.04l4.16-6.8h1.92l-5.24 8.28v6.02h-1.8Zm8.578 0v-14.3h5.96c1.493 0 2.626.46 3.4 1.38.64.746.96 1.653.96 2.72 0 1.333-.387 2.366-1.16 3.1-.774.733-1.927 1.1-3.46 1.1h-3.9v6h-1.8Zm1.8-12.74v5.28h3.76c.986 0 1.726-.234 2.22-.7.506-.467.76-1.12.76-1.96 0-.854-.254-1.5-.76-1.94-.494-.454-1.2-.68-2.12-.68h-3.86Zm10.29 12.74v-14.3h1.8v14.3h-1.8Zm4.511 0v-14.3h1.9l6.52 9.94 1.04 1.84h.04v-11.78h1.68v14.3h-1.84l-6.56-9.96-1.06-1.78h-.04v11.74h-1.68Zm25.067 0-.52-1.88h-.04c-1.04 1.453-2.526 2.18-4.46 2.18-2 0-3.62-.687-4.86-2.06-1.24-1.374-1.86-3.154-1.86-5.34 0-2.187.6-3.98 1.8-5.38 1.214-1.414 2.907-2.12 5.08-2.12 1.627 0 2.94.413 3.94 1.24 1.014.813 1.64 1.933 1.88 3.36h-1.86c-.2-.974-.64-1.72-1.32-2.24-.68-.534-1.573-.8-2.68-.8-1.653 0-2.9.546-3.74 1.64-.84 1.093-1.26 2.526-1.26 4.3 0 1.746.46 3.16 1.38 4.24.92 1.066 2.107 1.6 3.56 1.6 1.4 0 2.467-.414 3.2-1.24.747-.827 1.12-1.88 1.12-3.16v-.34h-4.3v-1.56h6.1v7.56h-1.16Z" fill="#F9FDFE"/><rect x="1.266" y="1.406" width="256" height="73" rx="36.5" stroke="#F9FDFE"/></svg>