<svg width="219" height="75" fill="none" xmlns="http://www.w3.org/2000/svg"><path d="M66.589 44.262c-1.92 0-3.4-.473-4.44-1.42-1.027-.947-1.58-2.18-1.66-3.7h1.76c.24 2.453 1.713 3.68 4.42 3.68 1.026 0 1.847-.227 2.46-.68.626-.467.94-1.133.94-2 0-.387-.073-.727-.22-1.02a2.319 2.319 0 0 0-.54-.72c-.2-.187-.507-.36-.92-.52-.413-.16-.8-.287-1.16-.38a32.146 32.146 0 0 0-1.44-.34 18.12 18.12 0 0 1-1.82-.48 7.927 7.927 0 0 1-1.44-.7 2.894 2.894 0 0 1-1.08-1.12c-.227-.467-.34-1.027-.34-1.68 0-1.173.44-2.093 1.32-2.76.893-.68 2.073-1.02 3.54-1.02 3.213 0 5.02 1.487 5.42 4.46h-1.7c-.133-1.013-.513-1.773-1.14-2.28-.627-.52-1.474-.78-2.54-.78-.987 0-1.773.2-2.36.6-.574.4-.86.967-.86 1.7 0 .32.06.607.18.86.133.24.3.447.5.62.213.16.486.307.82.44.346.133.686.247 1.02.34.333.08.74.167 1.22.26.666.133 1.213.26 1.64.38.427.107.9.273 1.42.5.52.227.92.487 1.2.78.293.293.54.68.74 1.16.213.467.32 1.013.32 1.64 0 1.307-.487 2.333-1.46 3.08-.96.733-2.227 1.1-3.8 1.1Zm5.716-13v-1.58h11.32v1.58h-4.76v12.72h-1.8v-12.72h-4.76Zm10.17 12.72 5.26-14.3h2.02l5.28 14.3h-1.96l-1.52-4.36h-5.7l-1.54 4.36h-1.84Zm5.6-10.62-1.7 4.8h4.68l-1.64-4.8-.64-2.02h-.04c-.253.8-.473 1.473-.66 2.02Zm8.51 10.62v-14.3h6.679c1.253 0 2.267.36 3.04 1.08.787.72 1.18 1.667 1.18 2.84 0 1.827-.827 3.007-2.48 3.54v.06c.707.253 1.207.653 1.5 1.2.307.533.493 1.347.56 2.44.133 1.827.353 2.847.66 3.06v.08h-1.94c-.147-.12-.253-.373-.32-.76-.053-.387-.12-1.2-.2-2.44-.067-1.04-.327-1.773-.78-2.2-.44-.427-1.147-.64-2.12-.64h-3.98v6.04h-1.8Zm1.8-12.74v5.24h4.239c.987 0 1.733-.227 2.24-.68.507-.467.76-1.113.76-1.94 0-.893-.227-1.553-.68-1.98-.453-.427-1.193-.64-2.22-.64h-4.34Zm10.092.02v-1.58h11.32v1.58h-4.76v12.72h-1.8v-12.72h-4.76Zm18.347 12.94c-1.667 0-3-.393-4-1.18-.987-.787-1.48-2.007-1.48-3.66v-9.68h1.8v9.5c0 2.32 1.247 3.48 3.74 3.48 2.413 0 3.62-1.16 3.62-3.48v-9.5h1.8v9.68c0 1.64-.507 2.86-1.52 3.66-1 .787-2.32 1.18-3.96 1.18Zm7.924-.22v-14.3h5.96c1.494 0 2.627.46 3.4 1.38.64.747.96 1.653.96 2.72 0 1.333-.386 2.367-1.16 3.1-.773.733-1.926 1.1-3.46 1.1h-3.9v6h-1.8Zm1.8-12.74v5.28h3.76c.987 0 1.727-.233 2.22-.7.507-.467.76-1.12.76-1.96 0-.853-.253-1.5-.76-1.94-.493-.453-1.2-.68-2.12-.68h-3.86Zm15.451 13.02c-1.92 0-3.4-.473-4.44-1.42-1.027-.947-1.58-2.18-1.66-3.7h1.76c.24 2.453 1.713 3.68 4.42 3.68 1.027 0 1.847-.227 2.46-.68.627-.467.94-1.133.94-2 0-.387-.073-.727-.22-1.02a2.331 2.331 0 0 0-.54-.72c-.2-.187-.507-.36-.92-.52-.413-.16-.8-.287-1.16-.38a32.417 32.417 0 0 0-1.44-.34c-.733-.16-1.34-.32-1.82-.48a7.927 7.927 0 0 1-1.44-.7 2.894 2.894 0 0 1-1.08-1.12c-.227-.467-.34-1.027-.34-1.68 0-1.173.44-2.093 1.32-2.76.893-.68 2.073-1.02 3.54-1.02 3.213 0 5.02 1.487 5.42 4.46h-1.7c-.133-1.013-.513-1.773-1.14-2.28-.627-.52-1.473-.78-2.54-.78-.987 0-1.773.2-2.36.6-.573.4-.86.967-.86 1.7 0 .32.06.607.18.86.133.24.3.447.5.62.213.16.487.307.82.44.347.133.687.247 1.02.34.333.08.74.167 1.22.26.667.133 1.213.26 1.64.38.427.107.9.273 1.42.5.52.227.92.487 1.2.78.293.293.54.68.74 1.16.213.467.32 1.013.32 1.64 0 1.307-.487 2.333-1.46 3.08-.96.733-2.227 1.1-3.8 1.1Z" fill="#F9FDFE"/><rect x=".549" y="1.482" width="217" height="73" rx="36.5" stroke="#F9FDFE"/></svg>