<svg width="256" height="75" fill="none" xmlns="http://www.w3.org/2000/svg"><path d="M61.19 30.913v-1.58h11.32v1.58h-4.76v12.72h-1.8v-12.72h-4.76Zm13.107 12.72v-14.3h10.1v1.58h-8.3v4.52h7.54v1.52h-7.54v5.02h8.54v1.66h-10.34Zm18.309.28c-2.014 0-3.634-.694-4.86-2.08-1.227-1.387-1.84-3.173-1.84-5.36 0-2.16.606-3.94 1.82-5.34 1.226-1.413 2.88-2.12 4.96-2.12 1.626 0 2.94.42 3.94 1.26 1 .84 1.6 1.94 1.8 3.3h-1.76c-.174-.907-.614-1.634-1.32-2.18-.694-.547-1.594-.82-2.7-.82-1.534 0-2.734.553-3.6 1.66-.867 1.093-1.3 2.507-1.3 4.24 0 1.76.446 3.18 1.34 4.26.906 1.067 2.1 1.6 3.58 1.6 1.28 0 2.266-.373 2.96-1.12.706-.747 1.106-1.687 1.2-2.82h1.78c-.014.706-.18 1.433-.5 2.18-.307.733-.714 1.346-1.22 1.84-1.027 1-2.454 1.5-4.28 1.5Zm8.019-.28v-14.3h1.8v6.08h7.64v-6.08h1.8v14.3h-1.8v-6.76h-7.64v6.76h-1.8Zm13.926 0v-14.3h1.9l6.52 9.94 1.04 1.84h.04v-11.78h1.68v14.3h-1.84l-6.56-9.96-1.06-1.78h-.04v11.74h-1.68Zm25.407-1.8c-1.267 1.4-2.96 2.1-5.08 2.1s-3.82-.7-5.1-2.1c-1.267-1.4-1.9-3.187-1.9-5.36 0-2.173.633-3.96 1.9-5.36 1.28-1.4 2.98-2.1 5.1-2.1 2.12 0 3.813.7 5.08 2.1 1.28 1.4 1.92 3.187 1.92 5.36 0 2.173-.64 3.96-1.92 5.36Zm-8.88-1.12c.907 1.093 2.173 1.64 3.8 1.64 1.627 0 2.893-.547 3.8-1.64s1.36-2.507 1.36-4.24-.453-3.147-1.36-4.24c-.907-1.107-2.173-1.66-3.8-1.66-1.627 0-2.893.553-3.8 1.66-.907 1.093-1.36 2.507-1.36 4.24s.453 3.147 1.36 4.24Zm12.946 2.92v-14.3h1.8v12.64h7.5v1.66h-9.3Zm21.715-1.8c-1.266 1.4-2.96 2.1-5.08 2.1s-3.82-.7-5.1-2.1c-1.266-1.4-1.9-3.187-1.9-5.36 0-2.173.634-3.96 1.9-5.36 1.28-1.4 2.98-2.1 5.1-2.1 2.12 0 3.814.7 5.08 2.1 1.28 1.4 1.92 3.187 1.92 5.36 0 2.173-.64 3.96-1.92 5.36Zm-8.88-1.12c.907 1.093 2.174 1.64 3.8 1.64 1.627 0 2.894-.547 3.8-1.64.907-1.093 1.36-2.507 1.36-4.24s-.453-3.147-1.36-4.24c-.906-1.107-2.173-1.66-3.8-1.66-1.626 0-2.893.553-3.8 1.66-.906 1.093-1.36 2.507-1.36 4.24s.454 3.147 1.36 4.24Zm24.146 2.92-.52-1.88h-.04c-1.04 1.453-2.527 2.18-4.46 2.18-2 0-3.62-.687-4.86-2.06-1.24-1.373-1.86-3.154-1.86-5.34 0-2.187.6-3.98 1.8-5.38 1.213-1.413 2.907-2.12 5.08-2.12 1.627 0 2.94.413 3.94 1.24 1.013.813 1.64 1.933 1.88 3.36h-1.86c-.2-.974-.64-1.72-1.32-2.24-.68-.534-1.573-.8-2.68-.8-1.653 0-2.9.547-3.74 1.64-.84 1.093-1.26 2.527-1.26 4.3 0 1.746.46 3.16 1.38 4.24.92 1.066 2.107 1.6 3.56 1.6 1.4 0 2.467-.413 3.2-1.24.747-.827 1.12-1.88 1.12-3.16v-.34h-4.3v-1.56h6.1v7.56h-1.16Zm6.883 0v-6.06l-5.18-8.24h2l4.1 6.8h.04l4.16-6.8h1.92l-5.24 8.28v6.02h-1.8Z" fill="#F9FDFE"/><rect x="1.25" y="1.133" width="254" height="73" rx="36.5" stroke="#F9FDFE"/></svg>