<svg width="281" height="75" fill="none" xmlns="http://www.w3.org/2000/svg"><path d="M67.482 43.597c-1.666 0-3-.394-4-1.18-.986-.787-1.48-2.007-1.48-3.66v-9.68h1.8v9.5c0 2.32 1.247 3.48 3.74 3.48 2.414 0 3.62-1.16 3.62-3.48v-9.5h1.8v9.68c0 1.64-.506 2.86-1.52 3.66-1 .786-2.32 1.18-3.96 1.18Zm13.32.06c-1.92 0-3.4-.474-4.44-1.42-1.027-.947-1.58-2.18-1.66-3.7h1.76c.24 2.453 1.713 3.68 4.42 3.68 1.026 0 1.846-.227 2.46-.68.626-.467.94-1.134.94-2 0-.387-.074-.727-.22-1.02a2.319 2.319 0 0 0-.54-.72c-.2-.187-.507-.36-.92-.52-.414-.16-.8-.287-1.16-.38a32.007 32.007 0 0 0-1.44-.34 18.12 18.12 0 0 1-1.82-.48 7.933 7.933 0 0 1-1.44-.7 2.895 2.895 0 0 1-1.08-1.12c-.227-.467-.34-1.027-.34-1.68 0-1.174.44-2.094 1.32-2.76.893-.68 2.073-1.02 3.54-1.02 3.213 0 5.02 1.486 5.42 4.46h-1.7c-.134-1.014-.514-1.774-1.14-2.28-.627-.52-1.474-.78-2.54-.78-.987 0-1.774.2-2.36.6-.574.4-.86.966-.86 1.7 0 .32.06.606.18.86.133.24.3.446.5.62.213.16.486.306.82.44.346.133.686.246 1.02.34.333.08.74.166 1.22.26.666.133 1.213.26 1.64.38.426.106.9.273 1.42.5.52.226.92.486 1.2.78.293.293.54.68.74 1.16.213.466.32 1.013.32 1.64 0 1.306-.487 2.333-1.46 3.08-.96.733-2.227 1.1-3.8 1.1Zm7.32-.28v-14.3h10.1v1.58h-8.3v4.52h7.54v1.52h-7.54v5.02h8.54v1.66h-10.34Zm12.441 0v-14.3h6.68c1.253 0 2.266.36 3.04 1.08.786.72 1.18 1.666 1.18 2.84 0 1.826-.827 3.006-2.48 3.54v.06c.706.253 1.206.653 1.5 1.2.306.533.493 1.346.56 2.44.133 1.826.353 2.846.66 3.06v.08h-1.94c-.147-.12-.254-.374-.32-.76-.054-.387-.12-1.2-.2-2.44-.067-1.04-.327-1.774-.78-2.2-.44-.427-1.147-.64-2.12-.64h-3.98v6.04h-1.8Zm1.8-12.74v5.24h4.24c.986 0 1.733-.227 2.24-.68.506-.467.76-1.114.76-1.94 0-.894-.227-1.554-.68-1.98-.454-.427-1.194-.64-2.22-.64h-4.34Zm14.509 12.74v-14.3h1.8v14.3h-1.8Zm4.511 0v-14.3h1.9l6.52 9.94 1.04 1.84h.04v-11.78h1.68v14.3h-1.84l-6.56-9.96-1.06-1.78h-.04v11.74h-1.68Zm12.967-12.72v-1.58h11.32v1.58h-4.76v12.72h-1.8v-12.72h-4.76Zm13.107 12.72v-14.3h10.1v1.58h-8.3v4.52h7.54v1.52h-7.54v5.02h8.54v1.66h-10.34Zm12.442 0v-14.3h6.68c1.253 0 2.266.36 3.04 1.08.786.72 1.18 1.666 1.18 2.84 0 1.826-.827 3.006-2.48 3.54v.06c.706.253 1.206.653 1.5 1.2.306.533.493 1.346.56 2.44.133 1.826.353 2.846.66 3.06v.08h-1.94c-.147-.12-.254-.374-.32-.76-.054-.387-.12-1.2-.2-2.44-.067-1.04-.327-1.774-.78-2.2-.44-.427-1.147-.64-2.12-.64h-3.98v6.04h-1.8Zm1.8-12.74v5.24h4.24c.986 0 1.733-.227 2.24-.68.506-.467.76-1.114.76-1.94 0-.894-.227-1.554-.68-1.98-.454-.427-1.194-.64-2.22-.64h-4.34Zm11.286 12.74v-14.3h9.7v1.58h-7.9v4.46h6.58v1.52h-6.58v6.74h-1.8Zm9.113 0 5.26-14.3h2.02l5.28 14.3h-1.96l-1.52-4.36h-5.7l-1.54 4.36h-1.84Zm5.6-10.62-1.7 4.8h4.68l-1.64-4.8-.64-2.02h-.04c-.253.8-.473 1.473-.66 2.02Zm13.966 10.9c-2.013 0-3.633-.694-4.86-2.08-1.227-1.387-1.84-3.174-1.84-5.36 0-2.16.607-3.94 1.82-5.34 1.227-1.414 2.88-2.12 4.96-2.12 1.627 0 2.94.42 3.94 1.26 1 .84 1.6 1.94 1.8 3.3h-1.76c-.173-.907-.613-1.634-1.32-2.18-.693-.547-1.593-.82-2.7-.82-1.533 0-2.733.553-3.6 1.66-.867 1.093-1.3 2.506-1.3 4.24 0 1.76.447 3.18 1.34 4.26.907 1.066 2.1 1.6 3.58 1.6 1.28 0 2.267-.374 2.96-1.12.707-.747 1.107-1.687 1.2-2.82h1.78c-.013.706-.18 1.433-.5 2.18-.307.733-.713 1.346-1.22 1.84-1.027 1-2.453 1.5-4.28 1.5Zm8.02-.28v-14.3h10.1v1.58h-8.3v4.52h7.54v1.52h-7.54v5.02h8.54v1.66h-10.34Z" fill="#F9FDFE"/><rect x="1.402" y=".877" width="279" height="73" rx="36.5" stroke="#F9FDFE"/></svg>