<svg width="295" height="75" fill="none" xmlns="http://www.w3.org/2000/svg"><path d="M66.58 44.218c-1.667 0-3-.393-4-1.18-.987-.786-1.48-2.006-1.48-3.66v-9.68h1.8v9.5c0 2.32 1.247 3.48 3.74 3.48 2.413 0 3.62-1.16 3.62-3.48v-9.5h1.8v9.68c0 1.64-.507 2.86-1.52 3.66-1 .787-2.32 1.18-3.96 1.18Zm13.32.06c-1.92 0-3.4-.473-4.44-1.42-1.027-.946-1.58-2.18-1.66-3.7h1.76c.24 2.454 1.713 3.68 4.42 3.68 1.026 0 1.846-.226 2.46-.68.626-.466.94-1.133.94-2 0-.386-.074-.726-.22-1.02a2.322 2.322 0 0 0-.54-.72c-.2-.186-.507-.36-.92-.52-.414-.16-.8-.286-1.16-.38a32.073 32.073 0 0 0-1.44-.34c-.734-.16-1.34-.32-1.82-.48a7.933 7.933 0 0 1-1.44-.7 2.895 2.895 0 0 1-1.08-1.12c-.227-.466-.34-1.026-.34-1.68 0-1.173.44-2.093 1.32-2.76.893-.68 2.073-1.02 3.54-1.02 3.213 0 5.02 1.487 5.42 4.46H83c-.134-1.013-.514-1.773-1.14-2.28-.627-.52-1.474-.78-2.54-.78-.987 0-1.774.2-2.36.6-.574.4-.86.967-.86 1.7 0 .32.06.607.18.86.133.24.3.447.5.62.213.16.486.307.82.44.346.134.686.247 1.02.34.333.08.74.167 1.22.26.666.134 1.213.26 1.64.38.426.107.9.274 1.42.5.52.227.92.487 1.2.78.293.294.54.68.74 1.16.213.467.32 1.014.32 1.64 0 1.307-.487 2.334-1.46 3.08-.96.734-2.227 1.1-3.8 1.1Zm7.319-.28v-14.3h10.1v1.58h-8.3v4.52h7.54v1.52h-7.54v5.02h8.54v1.66h-10.34Zm12.441 0v-14.3h6.68c1.254 0 2.267.36 3.04 1.08.787.72 1.18 1.667 1.18 2.84 0 1.827-.826 3.007-2.48 3.54v.06c.707.254 1.207.654 1.5 1.2.307.534.494 1.347.56 2.44.134 1.827.354 2.847.66 3.06v.08h-1.94c-.146-.12-.253-.373-.32-.76-.053-.386-.12-1.2-.2-2.44-.066-1.04-.326-1.773-.78-2.2-.44-.426-1.146-.64-2.12-.64h-3.98v6.04h-1.8Zm1.8-12.74v5.24h4.24c.987 0 1.734-.226 2.24-.68.507-.466.76-1.113.76-1.94 0-.893-.226-1.553-.68-1.98-.453-.426-1.193-.64-2.22-.64h-4.34Zm14.47 12.74v-14.3h10.1v1.58h-8.3v4.52h7.54v1.52h-7.54v5.02h8.54v1.66h-10.34Zm11.381 0 4.96-7.32-4.6-6.98h2.08l3.54 5.72h.04l3.62-5.72h1.98l-4.68 7 4.82 7.3h-2.16l-3.68-6.02h-.04l-3.84 6.02h-2.04Zm13.384 0v-14.3h5.96c1.494 0 2.627.46 3.4 1.38.64.747.96 1.654.96 2.72 0 1.334-.386 2.367-1.16 3.1-.773.734-1.926 1.1-3.46 1.1h-3.9v6h-1.8Zm1.8-12.74v5.28h3.76c.987 0 1.727-.233 2.22-.7.507-.466.76-1.12.76-1.96 0-.853-.253-1.5-.76-1.94-.493-.453-1.2-.68-2.12-.68h-3.86Zm10.251 12.74v-14.3h10.1v1.58h-8.3v4.52h7.54v1.52h-7.54v5.02h8.54v1.66h-10.34Zm12.442 0v-14.3h6.68c1.253 0 2.266.36 3.04 1.08.786.72 1.18 1.667 1.18 2.84 0 1.827-.827 3.007-2.48 3.54v.06c.706.254 1.206.654 1.5 1.2.306.534.493 1.347.56 2.44.133 1.827.353 2.847.66 3.06v.08h-1.94c-.147-.12-.254-.373-.32-.76-.054-.386-.12-1.2-.2-2.44-.067-1.04-.327-1.773-.78-2.2-.44-.426-1.147-.64-2.12-.64h-3.98v6.04h-1.8Zm1.8-12.74v5.24h4.24c.986 0 1.733-.226 2.24-.68.506-.466.76-1.113.76-1.94 0-.893-.227-1.553-.68-1.98-.454-.426-1.194-.64-2.22-.64h-4.34Zm11.326 12.74v-14.3h1.8v14.3h-1.8Zm4.51 0v-14.3h10.1v1.58h-8.3v4.52h7.54v1.52h-7.54v5.02h8.54v1.66h-10.34Zm12.442 0v-14.3h1.9l6.52 9.94 1.04 1.84h.04v-11.78h1.68v14.3h-1.84l-6.56-9.96-1.06-1.78h-.04v11.74h-1.68Zm20.027.28c-2.013 0-3.633-.693-4.86-2.08-1.227-1.386-1.84-3.173-1.84-5.36 0-2.16.607-3.94 1.82-5.34 1.227-1.413 2.88-2.12 4.96-2.12 1.627 0 2.94.42 3.94 1.26 1 .84 1.6 1.94 1.8 3.3h-1.76c-.173-.906-.613-1.633-1.32-2.18-.693-.546-1.593-.82-2.7-.82-1.533 0-2.733.554-3.6 1.66-.867 1.094-1.3 2.507-1.3 4.24 0 1.76.447 3.18 1.34 4.26.907 1.067 2.1 1.6 3.58 1.6 1.28 0 2.267-.373 2.96-1.12.707-.746 1.107-1.686 1.2-2.82h1.78c-.013.707-.18 1.434-.5 2.18-.307.734-.713 1.347-1.22 1.84-1.027 1-2.453 1.5-4.28 1.5Zm8.02-.28v-14.3h10.1v1.58h-8.3v4.52h7.54v1.52h-7.54v5.02h8.54v1.66h-10.34Z" fill="#F9FDFE"/><rect x=".5" y="1.498" width="294" height="73" rx="36.5" stroke="#F9FDFE"/></svg>