<svg xmlns="http://www.w3.org/2000/svg" width="244" height="75" fill="none"><path d="m64.62 43.186-3.7-14.3h1.88l2.26 9.3.54 2.42h.04c.227-1.014.427-1.834.6-2.46l2.58-9.26h1.94l2.5 9.26.58 2.46h.04c.227-1.027.414-1.834.56-2.42l2.38-9.3h1.82l-3.98 14.3h-1.72l-2.62-10.08-.52-2.18h-.04c-.2.893-.38 1.62-.54 2.18l-2.8 10.08h-1.8Zm15.642 0v-14.3h10.1v1.58h-8.3v4.52h7.54v1.52h-7.54v5.02h8.54v1.66h-10.34Zm12.441 0v-14.3h6.06c1.507 0 2.654.413 3.44 1.24.614.64.92 1.453.92 2.44 0 1.52-.766 2.52-2.3 3v.06c.854.2 1.547.6 2.08 1.2.534.587.8 1.34.8 2.26 0 1.093-.346 2.007-1.04 2.74-.84.907-2.033 1.36-3.58 1.36h-6.38Zm1.8-1.62h4.5c.987 0 1.734-.24 2.24-.72.427-.453.64-1.007.64-1.66 0-.867-.273-1.527-.82-1.98-.546-.454-1.273-.68-2.18-.68h-4.38v5.04Zm0-6.56h4.04c.867 0 1.547-.207 2.04-.62.494-.414.74-.987.74-1.72 0-.693-.226-1.233-.68-1.62-.44-.4-1.06-.6-1.86-.6h-4.28v4.56Zm10.491 2.48v-1.7h5.76v1.7h-5.76Zm7.866 5.7v-14.3h5.2c2.093 0 3.673.646 4.74 1.94 1.066 1.293 1.6 3.047 1.6 5.26 0 2.2-.554 3.933-1.66 5.2-1.107 1.267-2.714 1.9-4.82 1.9h-5.06Zm1.8-1.58h3.2c3.133 0 4.7-1.84 4.7-5.52 0-3.76-1.52-5.64-4.56-5.64h-3.34v11.16Zm11.871 1.58v-14.3h10.1v1.58h-8.3v4.52h7.54v1.52h-7.54v5.02h8.54v1.66h-10.34Zm17.447.28c-1.92 0-3.4-.474-4.44-1.42-1.027-.947-1.58-2.18-1.66-3.7h1.76c.24 2.453 1.713 3.68 4.42 3.68 1.026 0 1.846-.227 2.46-.68.626-.467.94-1.133.94-2a2.261 2.261 0 0 0-.76-1.74c-.2-.187-.507-.36-.92-.52-.414-.16-.8-.287-1.16-.38a32.275 32.275 0 0 0-1.44-.34 18.07 18.07 0 0 1-1.82-.48 7.933 7.933 0 0 1-1.44-.7 2.895 2.895 0 0 1-1.08-1.12c-.227-.467-.34-1.027-.34-1.68 0-1.174.44-2.094 1.32-2.76.893-.68 2.073-1.02 3.54-1.02 3.213 0 5.02 1.486 5.42 4.46h-1.7c-.134-1.014-.514-1.774-1.14-2.28-.627-.52-1.474-.78-2.54-.78-.987 0-1.774.2-2.36.6-.574.4-.86.966-.86 1.7 0 .32.06.607.18.86.133.24.3.447.5.62.213.16.486.306.82.44.346.133.686.246 1.02.34.333.08.74.166 1.22.26.666.133 1.213.26 1.64.38.426.106.9.273 1.42.5.52.226.92.486 1.2.78.293.293.54.68.74 1.16.213.466.32 1.013.32 1.64 0 1.306-.487 2.333-1.46 3.08-.96.733-2.227 1.1-3.8 1.1Zm7.359-.28v-14.3h1.8v14.3h-1.8Zm15.711 0-.52-1.88h-.04c-1.04 1.453-2.527 2.18-4.46 2.18-2 0-3.62-.687-4.86-2.06-1.24-1.373-1.86-3.154-1.86-5.34 0-2.187.6-3.98 1.8-5.38 1.213-1.413 2.906-2.12 5.08-2.12 1.626 0 2.94.413 3.94 1.24 1.013.813 1.64 1.933 1.88 3.36h-1.86c-.2-.974-.64-1.72-1.32-2.24-.68-.534-1.574-.8-2.68-.8-1.654 0-2.9.546-3.74 1.64-.84 1.093-1.26 2.526-1.26 4.3 0 1.747.46 3.16 1.38 4.24.92 1.066 2.106 1.6 3.56 1.6 1.4 0 2.466-.413 3.2-1.24.746-.827 1.12-1.88 1.12-3.16v-.34h-4.3v-1.56h6.1v7.56h-1.16Zm3.644 0v-14.3h1.9l6.52 9.94 1.04 1.84h.04v-11.78h1.68v14.3h-1.84l-6.56-9.96-1.06-1.78h-.04v11.74h-1.68Z" fill="#F9FDFE"/><rect x="1.141" y=".686" width="242" height="73" rx="36.5" stroke="#F9FDFE"/></svg>